<svg width="22" height="20" viewBox="0 0 22 20" fill="none" xmlns="http://www.w3.org/2000/svg">
<path d="M9.17617 4.16667L7.50992 5.83333H4.32738V15.8333H17.6574V5.83333H14.4748L12.8086 4.16667H9.17617ZM8.49301 2.5H13.4918L15.158 4.16667H18.4905C18.7238 4.16667 18.921 4.24722 19.082 4.40833C19.2431 4.56944 19.3236 4.76667 19.3236 5V16.6667C19.3236 16.9 19.2431 17.0972 19.082 17.2583C18.921 17.4194 18.7238 17.5 18.4905 17.5H3.49426C3.26098 17.5 3.06381 17.4194 2.90274 17.2583C2.74167 17.0972 2.66113 16.9 2.66113 16.6667V5C2.66113 4.76667 2.74167 4.56944 2.90274 4.40833C3.06381 4.24722 3.26098 4.16667 3.49426 4.16667H6.82676L8.49301 2.5ZM10.9924 15C10.1593 15 9.39278 14.7944 8.69296 14.3833C7.99313 13.9722 7.43772 13.4167 7.02671 12.7167C6.6157 12.0167 6.4102 11.25 6.4102 10.4167C6.4102 9.58333 6.6157 8.81667 7.02671 8.11667C7.43772 7.41667 7.99313 6.86111 8.69296 6.45C9.39278 6.03889 10.1593 5.83333 10.9924 5.83333C11.8255 5.83333 12.592 6.03889 13.2918 6.45C13.9916 6.86111 14.5471 7.41667 14.9581 8.11667C15.3691 8.81667 15.5746 9.58333 15.5746 10.4167C15.5746 11.25 15.3691 12.0167 14.9581 12.7167C14.5471 13.4167 13.9916 13.9722 13.2918 14.3833C12.592 14.7944 11.8255 15 10.9924 15ZM10.9924 13.3333C11.5256 13.3333 12.0143 13.2028 12.4587 12.9417C12.903 12.6806 13.2557 12.3278 13.5168 11.8833C13.7778 11.4389 13.9083 10.95 13.9083 10.4167C13.9083 9.88333 13.7778 9.39444 13.5168 8.95C13.2557 8.50556 12.903 8.15278 12.4587 7.89167C12.0143 7.63056 11.5256 7.5 10.9924 7.5C10.4592 7.5 9.97042 7.63056 9.52608 7.89167C9.08175 8.15278 8.72906 8.50556 8.46801 8.95C8.20697 9.39444 8.07645 9.88333 8.07645 10.4167C8.07645 10.95 8.20697 11.4389 8.46801 11.8833C8.72906 12.3278 9.08175 12.6806 9.52608 12.9417C9.97042 13.2028 10.4592 13.3333 10.9924 13.3333Z" fill="#2563EB"/>
</svg>
