<svg width="25" height="28" viewBox="0 0 25 28" fill="none" xmlns="http://www.w3.org/2000/svg">
<g clip-path="url(#clip0_271_1451)">
<path d="M16.5676 2.30476C16.4077 2.15528 16.2178 2.0367 16.0088 1.9558C15.7998 1.87489 15.5757 1.83325 15.3495 1.83325C15.1233 1.83325 14.8993 1.87489 14.6903 1.9558C14.4812 2.0367 14.2914 2.15528 14.1314 2.30476L13.7995 2.61484L13.4676 2.30476C13.1445 2.00296 12.7064 1.83341 12.2495 1.83341C11.7926 1.83341 11.3545 2.00296 11.0314 2.30476C10.7083 2.60656 10.5269 3.01588 10.5269 3.44269C10.5269 3.8695 10.7083 4.27883 11.0314 4.58063L11.3633 4.89071L13.7995 7.16658L16.2357 4.89071L16.5676 4.58063C16.7276 4.43122 16.8545 4.25382 16.9411 4.05857C17.0277 3.86332 17.0723 3.65404 17.0723 3.44269C17.0723 3.23135 17.0277 3.02207 16.9411 2.82682C16.8545 2.63157 16.7276 2.45417 16.5676 2.30476V2.30476Z" stroke="white" stroke-width="2" stroke-linecap="round" stroke-linejoin="round"/>
</g>
<path d="M17.709 20.3752C20.0394 20.8786 21.709 22.2368 21.709 23.8333" stroke="white" stroke-width="2" stroke-linecap="round" stroke-linejoin="round"/>
<path d="M3.70898 23.8334C3.70898 21.8084 6.39528 20.1667 9.70898 20.1667C13.0227 20.1667 15.709 21.8084 15.709 23.8334" stroke="white" stroke-width="2" stroke-linecap="round" stroke-linejoin="round"/>
<path d="M15.709 17.4166C17.9181 17.4166 19.709 15.775 19.709 13.7499C19.709 11.7249 17.9181 10.0833 15.709 10.0833" stroke="white" stroke-width="2" stroke-linecap="round" stroke-linejoin="round"/>
<path d="M9.70898 17.4166C11.9181 17.4166 13.709 15.775 13.709 13.7499C13.709 11.7249 11.9181 10.0833 9.70898 10.0833C7.49985 10.0833 5.70898 11.7249 5.70898 13.7499C5.70898 15.775 7.49985 17.4166 9.70898 17.4166Z" stroke="white" stroke-width="2" stroke-linecap="round" stroke-linejoin="round"/>
<defs>
<clipPath id="clip0_271_1451">
<rect width="8.72727" height="8" fill="white" transform="translate(9.43604 0.5)"/>
</clipPath>
</defs>
</svg>
