<svg width="25" height="24" viewBox="0 0 25 24" fill="none" xmlns="http://www.w3.org/2000/svg">
<path d="M17.32 16.06L17.5 16.24L17.68 16.06C17.96 15.7666 18.2933 15.57 18.68 15.47C19.0666 15.37 19.4533 15.37 19.84 15.47C20.2266 15.57 20.5666 15.7666 20.86 16.06C21.1533 16.3533 21.35 16.6933 21.45 17.08C21.55 17.4666 21.55 17.85 21.45 18.23C21.35 18.61 21.1533 18.9466 20.86 19.24L17.5 22.6L14.14 19.24C13.8466 18.9466 13.65 18.61 13.55 18.23C13.45 17.85 13.45 17.4666 13.55 17.08C13.65 16.6933 13.8466 16.3533 14.14 16.06C14.4333 15.7666 14.7733 15.57 15.16 15.47C15.5466 15.37 15.9333 15.37 16.32 15.47C16.7066 15.57 17.04 15.7666 17.32 16.06ZM11.48 14.4V16.4C10.4 16.4 9.39331 16.6733 8.45998 17.22C7.55331 17.7533 6.83331 18.4733 6.29998 19.38C5.75331 20.3133 5.47998 21.32 5.47998 22.4H3.47998C3.47998 20.9733 3.83331 19.6466 4.53998 18.42C5.21998 17.2333 6.14665 16.2866 7.31998 15.58C8.51998 14.8333 9.82665 14.44 11.24 14.4H11.48ZM11.48 1.39997C12.5733 1.39997 13.5866 1.67331 14.52 2.21997C15.4133 2.75331 16.1266 3.47331 16.66 4.37997C17.2066 5.29997 17.48 6.29997 17.48 7.37997C17.48 8.45997 17.22 9.45331 16.7 10.36C16.1933 11.2533 15.4966 11.9733 14.61 12.52C13.7233 13.0666 12.7533 13.36 11.7 13.4H11.48C10.4 13.4 9.39331 13.1266 8.45998 12.58C7.55331 12.0466 6.83331 11.3266 6.29998 10.42C5.75331 9.49997 5.47998 8.49997 5.47998 7.41997C5.47998 6.33998 5.73998 5.34664 6.25998 4.43997C6.76665 3.54664 7.46331 2.82664 8.34998 2.27997C9.23665 1.73331 10.2066 1.43997 11.26 1.39997H11.48ZM11.48 3.39997C10.76 3.39997 10.0933 3.57998 9.47998 3.93997C8.86665 4.29997 8.37998 4.78664 8.01998 5.39997C7.65998 6.01331 7.47998 6.67997 7.47998 7.39997C7.47998 8.11997 7.65998 8.78664 8.01998 9.39997C8.37998 10.0133 8.86665 10.5 9.47998 10.86C10.0933 11.22 10.76 11.4 11.48 11.4C12.2 11.4 12.8666 11.22 13.48 10.86C14.0933 10.5 14.58 10.0133 14.94 9.39997C15.3 8.78664 15.48 8.11997 15.48 7.39997C15.48 6.67997 15.3 6.01331 14.94 5.39997C14.58 4.78664 14.0933 4.29997 13.48 3.93997C12.8666 3.57998 12.2 3.39997 11.48 3.39997Z" fill="white"/>
</svg>
