<svg width="16" height="14" viewBox="0 0 16 14" fill="none" xmlns="http://www.w3.org/2000/svg">
<path d="M8.2502 11.6667C9.09767 11.6667 9.88295 11.4528 10.606 11.025C11.3058 10.6128 11.8617 10.0567 12.2738 9.35668C12.7014 8.63334 12.9152 7.84779 12.9152 7.00001C12.9152 6.15223 12.7014 5.36668 12.2738 4.64334C11.8617 3.94334 11.3058 3.38723 10.606 2.97501C9.88295 2.54723 9.09767 2.33334 8.2502 2.33334C7.40272 2.33334 6.61745 2.54723 5.89437 2.97501C5.19462 3.38723 4.63871 3.94334 4.22663 4.64334C3.79901 5.36668 3.5852 6.15223 3.5852 7.00001C3.5852 7.84779 3.79901 8.63334 4.22663 9.35668C4.63871 10.0567 5.19462 10.6128 5.89437 11.025C6.61745 11.4528 7.40272 11.6667 8.2502 11.6667ZM8.2502 12.8333C7.45715 12.8333 6.69908 12.6817 5.97601 12.3783C5.28403 12.0828 4.66786 11.6647 4.1275 11.1242C3.58714 10.5836 3.16923 9.96723 2.87378 9.27501C2.57056 8.55168 2.41895 7.79334 2.41895 7.00001C2.41895 6.20668 2.57056 5.44834 2.87378 4.72501C3.16923 4.03279 3.58714 3.4164 4.1275 2.87584C4.66786 2.33529 5.28403 1.91723 5.97601 1.62168C6.69908 1.31834 7.45715 1.16668 8.2502 1.16668C9.04325 1.16668 9.80131 1.31834 10.5244 1.62168C11.2164 1.91723 11.8325 2.33529 12.3729 2.87584C12.9133 3.4164 13.3312 4.03279 13.6266 4.72501C13.9298 5.44834 14.0814 6.20668 14.0814 7.00001C14.0814 7.79334 13.9298 8.55168 13.6266 9.27501C13.3312 9.96723 12.9133 10.5836 12.3729 11.1242C11.8325 11.6647 11.2164 12.0828 10.5244 12.3783C9.80131 12.6817 9.04325 12.8333 8.2502 12.8333ZM8.2502 8.16668C8.04027 8.16668 7.8459 8.11418 7.66707 8.00918C7.48825 7.90418 7.34635 7.76223 7.24139 7.58334C7.13643 7.40445 7.08395 7.21001 7.08395 7.00001C7.08395 6.79001 7.13643 6.59557 7.24139 6.41668C7.34635 6.23779 7.48825 6.09584 7.66707 5.99084C7.8459 5.88584 8.04027 5.83334 8.2502 5.83334C8.46012 5.83334 8.6545 5.88584 8.83332 5.99084C9.01215 6.09584 9.15404 6.23779 9.259 6.41668C9.36396 6.59557 9.41645 6.79001 9.41645 7.00001C9.41645 7.21001 9.36396 7.40445 9.259 7.58334C9.15404 7.76223 9.01215 7.90418 8.83332 8.00918C8.6545 8.11418 8.46012 8.16668 8.2502 8.16668Z" fill="#2563EB"/>
</svg>
