<svg width="22" height="20" viewBox="0 0 22 20" fill="none" xmlns="http://www.w3.org/2000/svg">
<path d="M10.9923 0.833353L17.8406 2.35002C18.0294 2.39446 18.1849 2.49446 18.3071 2.65002C18.4293 2.80557 18.4904 2.9778 18.4904 3.16669V11.4834C18.4904 12.3278 18.2932 13.1167 17.8989 13.85C17.5045 14.5834 16.9574 15.1834 16.2576 15.65L10.9923 19.1667L5.72692 15.65C5.02709 15.1834 4.48001 14.5834 4.08566 13.85C3.69131 13.1167 3.49414 12.3278 3.49414 11.4834V3.16669C3.49414 2.9778 3.55524 2.80557 3.67743 2.65002C3.79962 2.49446 3.95514 2.39446 4.14398 2.35002L10.9923 0.833353ZM10.9923 2.53335L5.16039 3.83335V11.4834C5.16039 12.05 5.29091 12.5778 5.55196 13.0667C5.81301 13.5556 6.1768 13.9556 6.64335 14.2667L10.9923 17.1667L15.3412 14.2667C15.8077 13.9556 16.1715 13.5556 16.4326 13.0667C16.6936 12.5778 16.8241 12.05 16.8241 11.4834V3.83335L10.9923 2.53335ZM14.708 6.85002L15.8744 8.03335L10.5757 13.3334L7.04325 9.80002L8.22629 8.61669L10.5757 10.9834L14.708 6.85002Z" fill="#9333EA"/>
</svg>
