<svg width="16" height="14" viewBox="0 0 16 14" fill="none" xmlns="http://www.w3.org/2000/svg">
<path d="M7.7502 2.49668C8.20115 2.09224 8.71819 1.82585 9.30132 1.69751C9.88444 1.56918 10.4598 1.58279 11.0274 1.73835C11.6183 1.90168 12.1295 2.19918 12.561 2.63085C12.9925 3.06251 13.2899 3.5739 13.4532 4.16501C13.6087 4.73279 13.6223 5.3064 13.494 5.88585C13.3657 6.46529 13.0994 6.98446 12.6951 7.44335L7.7502 12.39L2.8053 7.44335C2.401 6.98446 2.13471 6.46529 2.00642 5.88585C1.87814 5.3064 1.89174 4.73279 2.04724 4.16501C2.21052 3.5739 2.50985 3.06251 2.94525 2.63085C3.38065 2.19918 3.88992 1.90168 4.47304 1.73835C5.04062 1.58279 5.61597 1.56918 6.19909 1.69751C6.78222 1.82585 7.29925 2.09224 7.7502 2.49668ZM11.7271 3.45335C11.4394 3.16557 11.1051 2.96918 10.7241 2.86418C10.3432 2.75918 9.9583 2.74946 9.56955 2.83501C9.1808 2.92057 8.83482 3.09946 8.53159 3.37168L7.7502 4.07168L6.96882 3.37168C6.67337 3.09946 6.32932 2.92057 5.93669 2.83501C5.54405 2.74946 5.15724 2.75918 4.77627 2.86418C4.39529 2.96918 4.06097 3.16557 3.77329 3.45335C3.48562 3.74113 3.28735 4.07557 3.1785 4.45668C3.06965 4.83779 3.05605 5.22085 3.13769 5.60585C3.21932 5.99085 3.39232 6.33501 3.65667 6.63835L7.7502 10.745L11.8437 6.63835C12.1081 6.33501 12.2811 5.99085 12.3627 5.60585C12.4444 5.22085 12.4308 4.83779 12.3219 4.45668C12.2131 4.07557 12.0148 3.74113 11.7271 3.45335Z" fill="#16A34A"/>
</svg>
