<svg width="26" height="24" viewBox="0 0 26 24" fill="none" xmlns="http://www.w3.org/2000/svg">
<path d="M7.6 9.99994L11 7.21994V16.7799L7.6 13.9999H4V9.99994H7.6ZM3 15.9999H6.88L12.18 20.3399C12.2733 20.4066 12.3833 20.4399 12.51 20.4399C12.6367 20.4399 12.75 20.3933 12.85 20.2999C12.95 20.2066 13 20.0866 13 19.9399V4.05994C13 3.93994 12.96 3.82994 12.88 3.72994C12.8 3.62994 12.69 3.57327 12.55 3.55994C12.41 3.54661 12.2867 3.57994 12.18 3.65994L6.88 7.99994H3C2.72 7.99994 2.48333 8.09661 2.29 8.28994C2.09667 8.48327 2 8.71994 2 8.99994V14.9999C2 15.2799 2.09667 15.5166 2.29 15.7099C2.48333 15.9033 2.72 15.9999 3 15.9999ZM24 11.9999C24 13.6133 23.6667 15.1466 23 16.5999C22.3467 18.0133 21.4333 19.2333 20.26 20.2599L18.84 18.8399C19.8267 17.9999 20.5933 16.9999 21.14 15.8399C21.7133 14.6266 22 13.3466 22 11.9999C22 10.6533 21.7133 9.37327 21.14 8.15994C20.5933 6.99994 19.8267 5.99994 18.84 5.15994L20.26 3.73994C21.4333 4.76661 22.3467 5.98661 23 7.39994C23.6667 8.85327 24 10.3866 24 11.9999ZM19 11.9999C19 11.0666 18.7933 10.1799 18.38 9.33994C17.98 8.52661 17.4267 7.83994 16.72 7.27994L15.28 8.71994C15.8133 9.07994 16.2333 9.54994 16.54 10.1299C16.8467 10.7099 17 11.3333 17 11.9999C17 12.6666 16.8467 13.2899 16.54 13.8699C16.2333 14.4499 15.8133 14.9199 15.28 15.2799L16.72 16.7199C17.4267 16.1599 17.98 15.4733 18.38 14.6599C18.7933 13.8199 19 12.9333 19 11.9999Z" fill="white"/>
</svg>
