<svg width="22" height="20" viewBox="0 0 22 20" fill="none" xmlns="http://www.w3.org/2000/svg">
<path d="M10.9921 2.50002C10.5366 2.50002 10.1173 2.61113 9.73406 2.83335C9.35083 3.05557 9.04812 3.35835 8.82596 3.74169C8.60379 4.12502 8.49271 4.54446 8.49271 5.00002V8.33335C8.49271 8.78891 8.60379 9.20835 8.82596 9.59169C9.04812 9.97502 9.35083 10.2778 9.73406 10.5C10.1173 10.7222 10.5366 10.8334 10.9921 10.8334C11.4475 10.8334 11.8669 10.7222 12.2501 10.5C12.6333 10.2778 12.936 9.97502 13.1582 9.59169C13.3804 9.20835 13.4915 8.78891 13.4915 8.33335V5.00002C13.4915 4.54446 13.3804 4.12502 13.1582 3.74169C12.936 3.35835 12.6333 3.05557 12.2501 2.83335C11.8669 2.61113 11.4475 2.50002 10.9921 2.50002ZM10.9921 0.833353C11.7474 0.833353 12.4445 1.01946 13.0832 1.39169C13.722 1.76391 14.2274 2.26946 14.5995 2.90835C14.9716 3.54724 15.1577 4.24446 15.1577 5.00002V8.33335C15.1577 9.08891 14.9716 9.78613 14.5995 10.425C14.2274 11.0639 13.722 11.5695 13.0832 11.9417C12.4445 12.3139 11.7474 12.5 10.9921 12.5C10.2367 12.5 9.53967 12.3139 8.90094 11.9417C8.26221 11.5695 7.75678 11.0639 7.38465 10.425C7.01252 9.78613 6.82646 9.08891 6.82646 8.33335V5.00002C6.82646 4.24446 7.01252 3.54724 7.38465 2.90835C7.75678 2.26946 8.26221 1.76391 8.90094 1.39169C9.53967 1.01946 10.2367 0.833353 10.9921 0.833353ZM3.54395 9.16669H5.22686C5.36016 10.1 5.69618 10.9472 6.23494 11.7084C6.77369 12.4695 7.45408 13.0667 8.27609 13.5C9.12033 13.9445 10.0257 14.1667 10.9921 14.1667C11.9585 14.1667 12.8638 13.9445 13.7081 13.5C14.5301 13.0667 15.2105 12.4695 15.7492 11.7084C16.288 10.9472 16.624 10.1 16.7573 9.16669H18.4402C18.318 10.3111 17.9459 11.3722 17.3238 12.35C16.724 13.2945 15.952 14.0667 15.0077 14.6667C14.0302 15.2889 12.9694 15.6611 11.8252 15.7834V19.1667H10.159V15.7834C9.0148 15.6611 7.95395 15.2889 6.97642 14.6667C6.03221 14.0667 5.26018 13.2945 4.66033 12.35C4.03827 11.3722 3.66614 10.3111 3.54395 9.16669Z" fill="#16A34A"/>
</svg>
