<svg width="16" height="16" viewBox="0 0 16 16" fill="none" xmlns="http://www.w3.org/2000/svg">
<path d="M8.38281 15.5C7.36281 15.5 6.38781 15.305 5.45781 14.915C4.56781 14.535 3.77531 13.9975 3.08031 13.3025C2.38531 12.6075 1.84781 11.815 1.46781 10.925C1.07781 9.995 0.882812 9.02 0.882812 8C0.882812 6.98 1.07781 6.005 1.46781 5.075C1.84781 4.185 2.38531 3.3925 3.08031 2.6975C3.77531 2.0025 4.56781 1.465 5.45781 1.085C6.38781 0.695001 7.36281 0.5 8.38281 0.5C9.40281 0.5 10.3778 0.695001 11.3078 1.085C12.1978 1.465 12.9903 2.0025 13.6853 2.6975C14.3803 3.3925 14.9178 4.185 15.2978 5.075C15.6878 6.005 15.8828 6.98 15.8828 8C15.8828 9.02 15.6878 9.995 15.2978 10.925C14.9178 11.815 14.3803 12.6075 13.6853 13.3025C12.9903 13.9975 12.1978 14.535 11.3078 14.915C10.3778 15.305 9.40281 15.5 8.38281 15.5ZM8.38281 14C9.47281 14 10.4828 13.725 11.4128 13.175C12.3128 12.645 13.0278 11.93 13.5578 11.03C14.1078 10.1 14.3828 9.09 14.3828 8C14.3828 6.91 14.1078 5.9 13.5578 4.97C13.0278 4.07 12.3128 3.355 11.4128 2.825C10.4828 2.275 9.47281 2 8.38281 2C7.29281 2 6.28281 2.275 5.35281 2.825C4.45281 3.355 3.73781 4.07 3.20781 4.97C2.65781 5.9 2.38281 6.91 2.38281 8C2.38281 9.09 2.65781 10.1 3.20781 11.03C3.73781 11.93 4.45281 12.645 5.35281 13.175C6.28281 13.725 7.29281 14 8.38281 14ZM7.63281 4.25H9.13281V5.75H7.63281V4.25ZM7.63281 7.25H9.13281V11.75H7.63281V7.25Z" fill="#3B82F6"/>
</svg>
