<svg width="13" height="11" viewBox="0 0 13 11" fill="none" xmlns="http://www.w3.org/2000/svg">
<path d="M1.24635 10.75C1.0829 10.75 0.944743 10.6936 0.831885 10.5808C0.719027 10.4681 0.662598 10.33 0.662598 10.1667V0.833333C0.662598 0.67 0.719027 0.531944 0.831885 0.419167C0.944743 0.306389 1.0829 0.25 1.24635 0.25H11.7538C11.9173 0.25 12.0555 0.306389 12.1683 0.419167C12.2812 0.531944 12.3376 0.67 12.3376 0.833333V10.1667C12.3376 10.33 12.2812 10.4681 12.1683 10.5808C12.0555 10.6936 11.9173 10.75 11.7538 10.75H1.24635ZM11.1701 7.25V1.41667H1.8301V9.58333L7.6676 3.75L11.1701 7.25ZM11.1701 8.895L7.6676 5.395L3.47627 9.58333H11.1701V8.895ZM4.1651 4.91667C3.95495 4.91667 3.76036 4.86417 3.58135 4.75917C3.40233 4.65417 3.26029 4.51222 3.15521 4.33333C3.05014 4.15444 2.9976 3.96 2.9976 3.75C2.9976 3.54 3.05014 3.34556 3.15521 3.16667C3.26029 2.98778 3.40233 2.84583 3.58135 2.74083C3.76036 2.63583 3.95495 2.58333 4.1651 2.58333C4.37525 2.58333 4.56983 2.63583 4.74885 2.74083C4.92786 2.84583 5.06991 2.98778 5.17499 3.16667C5.28006 3.34556 5.3326 3.54 5.3326 3.75C5.3326 3.96 5.28006 4.15444 5.17499 4.33333C5.06991 4.51222 4.92786 4.65417 4.74885 4.75917C4.56983 4.86417 4.37525 4.91667 4.1651 4.91667Z" fill="black"/>
</svg>
