<svg width="8" height="9" viewBox="0 0 8 9" fill="none" xmlns="http://www.w3.org/2000/svg">
<path d="M5.76776 4.5L2.03176 2.015V6.985L5.76776 4.5ZM7.50733 4.745L1.31958 8.86333C1.24953 8.91 1.17559 8.92555 1.09776 8.91C1.01992 8.89444 0.957658 8.85167 0.910958 8.78167C0.879824 8.735 0.864258 8.68055 0.864258 8.61833V0.381666C0.864258 0.29611 0.893445 0.22611 0.95182 0.171666C1.0102 0.117222 1.0783 0.0899992 1.15613 0.0899992C1.2184 0.0899992 1.27288 0.105555 1.31958 0.136665L7.50733 4.255C7.5696 4.30167 7.61046 4.36389 7.62992 4.44167C7.64938 4.51944 7.63576 4.59333 7.58906 4.66333C7.56571 4.69444 7.53847 4.72167 7.50733 4.745Z" fill="white"/>
</svg>
