<svg width="16" height="15" viewBox="0 0 16 15" fill="none" xmlns="http://www.w3.org/2000/svg">
<path d="M3.93237 3.08998C4.45386 2.63887 5.03761 2.28887 5.68362 2.03998C6.34521 1.79109 7.03403 1.66665 7.7501 1.66665C8.544 1.66665 9.30287 1.81831 10.0267 2.12165C10.7194 2.4172 11.3363 2.83526 11.8772 3.37581C12.4182 3.91637 12.8365 4.53276 13.1323 5.22498C13.4358 5.94831 13.5876 6.70665 13.5876 7.49998C13.5876 8.11442 13.4942 8.70942 13.3074 9.28498C13.1284 9.84498 12.8676 10.3661 12.5252 10.8483L10.6688 7.49998H12.4201C12.4201 6.6522 12.2061 5.86665 11.778 5.14331C11.3655 4.44331 10.8089 3.8872 10.1084 3.47498C9.3846 3.0472 8.59848 2.83331 7.7501 2.83331C7.13521 2.83331 6.54368 2.94998 5.9755 3.18331C5.43066 3.40887 4.94421 3.72387 4.51612 4.12831L3.93237 3.08998ZM11.5678 11.91C11.0463 12.3611 10.4626 12.7111 9.81657 12.96C9.15499 13.2089 8.46616 13.3333 7.7501 13.3333C6.9562 13.3333 6.19732 13.1816 5.47347 12.8783C4.78076 12.5828 4.16393 12.1647 3.62299 11.6241C3.08204 11.0836 2.66369 10.4672 2.36792 9.77498C2.06437 9.05165 1.9126 8.29331 1.9126 7.49998C1.9126 6.88554 2.006 6.29053 2.1928 5.71498C2.37181 5.15498 2.63256 4.63387 2.97502 4.15165L4.83135 7.49998H3.0801C3.0801 8.34776 3.29414 9.13331 3.72222 9.85665C4.13474 10.5566 4.69125 11.1128 5.39175 11.525C6.1156 11.9528 6.90171 12.1666 7.7501 12.1666C8.36498 12.1666 8.95651 12.05 9.5247 11.8166C10.0695 11.5911 10.556 11.2761 10.9841 10.8716L11.5678 11.91Z" fill="white"/>
</svg>
