<svg width="16" height="15" viewBox="0 0 16 15" fill="none" xmlns="http://www.w3.org/2000/svg">
<path d="M5.08134 3.99998V2.24998C5.08134 2.08665 5.13777 1.94859 5.25063 1.83581C5.36348 1.72303 5.50164 1.66665 5.66509 1.66665H12.6701C12.8335 1.66665 12.9717 1.72303 13.0845 1.83581C13.1974 1.94859 13.2538 2.08665 13.2538 2.24998V10.4166C13.2538 10.58 13.1974 10.718 13.0845 10.8308C12.9717 10.9436 12.8335 11 12.6701 11H10.9188V12.75C10.9188 12.9133 10.8624 13.0514 10.7495 13.1641C10.6367 13.2769 10.4985 13.3333 10.3351 13.3333H3.33009C3.16664 13.3333 3.02848 13.2769 2.91563 13.1641C2.80277 13.0514 2.74634 12.9133 2.74634 12.75V4.58331C2.74634 4.41998 2.80471 4.28192 2.92146 4.16915C3.03821 4.05637 3.17442 3.99998 3.33009 3.99998H5.08134ZM3.91384 5.16665V12.1666H9.75134V5.16665H3.91384ZM6.24884 3.99998H10.9188V9.83331H12.0863V2.83331H6.24884V3.99998Z" fill="#1D4ED8"/>
</svg>
