<svg width="21" height="20" viewBox="0 0 21 20" fill="none" xmlns="http://www.w3.org/2000/svg">
<path d="M15.7986 12.95L14.6156 11.7667L15.7986 10.5833C16.3318 10.05 16.6928 9.42776 16.8817 8.71665C17.0705 8.00554 17.0705 7.29165 16.8817 6.57498C16.6928 5.85832 16.3318 5.23332 15.7986 4.69998C15.2654 4.16665 14.6406 3.80554 13.9241 3.61665C13.2076 3.42776 12.4939 3.42776 11.7829 3.61665C11.072 3.80554 10.4499 4.16665 9.91673 4.69998L8.7337 5.88332L7.55066 4.69998L8.7337 3.51665C9.47796 2.77221 10.3611 2.26665 11.383 1.99998C12.3606 1.74443 13.3437 1.74443 14.3323 1.99998C15.3543 2.26665 16.2374 2.77221 16.9816 3.51665C17.7259 4.2611 18.2313 5.14443 18.4979 6.16665C18.7534 7.15554 18.7534 8.13887 18.4979 9.11665C18.2313 10.1389 17.7259 11.0222 16.9816 11.7667L15.7986 12.95ZM13.4492 15.3L12.2661 16.4833C11.5219 17.2278 10.6388 17.7333 9.61681 18C8.63928 18.2555 7.65619 18.2555 6.66755 18C5.64558 17.7333 4.76247 17.2278 4.01821 16.4833C3.27395 15.7389 2.76852 14.8555 2.50192 13.8333C2.24643 12.8444 2.24643 11.8611 2.50192 10.8833C2.76852 9.8611 3.27395 8.97776 4.01821 8.23332L5.20125 7.04998L6.38428 8.23332L5.20125 9.41665C4.66805 9.94998 4.30703 10.5722 4.11818 11.2833C3.92934 11.9944 3.92934 12.7083 4.11818 13.425C4.30703 14.1417 4.66805 14.7667 5.20125 15.3C5.73445 15.8333 6.35929 16.1944 7.07578 16.3833C7.79227 16.5722 8.50598 16.5722 9.21691 16.3833C9.92784 16.1944 10.5499 15.8333 11.0831 15.3L12.2661 14.1167L13.4492 15.3ZM12.8493 6.46665L14.0324 7.64998L8.15051 13.5333L6.96747 12.35L12.8493 6.46665Z" fill="#2563EB"/>
</svg>
