<svg width="21" height="20" viewBox="0 0 21 20" fill="none" xmlns="http://www.w3.org/2000/svg">
<path d="M5.25 7.5C5.70333 7.5 6.12 7.38667 6.5 7.16C6.88 6.93333 7.18333 6.63 7.41 6.25C7.63667 5.87 7.75 5.45333 7.75 5C7.75 4.54667 7.63667 4.13 7.41 3.75C7.18333 3.37 6.88 3.06667 6.5 2.84C6.12 2.61333 5.70333 2.5 5.25 2.5C4.79667 2.5 4.38 2.61333 4 2.84C3.62 3.06667 3.31667 3.37 3.09 3.75C2.86333 4.13 2.75 4.54667 2.75 5C2.75 5.45333 2.86333 5.87 3.09 6.25C3.31667 6.63 3.62 6.93333 4 7.16C4.38 7.38667 4.79667 7.5 5.25 7.5ZM5.25 9.5C4.43667 9.5 3.68667 9.29667 3 8.89C2.31333 8.48333 1.76667 7.93667 1.36 7.25C0.953333 6.56333 0.75 5.81333 0.75 5C0.75 4.18667 0.953333 3.43667 1.36 2.75C1.76667 2.06333 2.31333 1.51667 3 1.11C3.68667 0.703333 4.43667 0.5 5.25 0.5C6.06333 0.5 6.81333 0.703333 7.5 1.11C8.18667 1.51667 8.73333 2.06333 9.14 2.75C9.54667 3.43667 9.75 4.18667 9.75 5C9.75 5.81333 9.54667 6.56333 9.14 7.25C8.73333 7.93667 8.18667 8.48333 7.5 8.89C6.81333 9.29667 6.06333 9.5 5.25 9.5ZM15.75 11.5C16.11 11.5 16.4433 11.41 16.75 11.23C17.0567 11.05 17.3 10.8067 17.48 10.5C17.66 10.1933 17.75 9.86 17.75 9.5C17.75 9.14 17.66 8.80667 17.48 8.5C17.3 8.19333 17.0567 7.95 16.75 7.77C16.4433 7.59 16.11 7.5 15.75 7.5C15.39 7.5 15.0567 7.59 14.75 7.77C14.4433 7.95 14.2 8.19333 14.02 8.5C13.84 8.80667 13.75 9.14 13.75 9.5C13.75 9.86 13.84 10.1933 14.02 10.5C14.2 10.8067 14.4433 11.05 14.75 11.23C15.0567 11.41 15.39 11.5 15.75 11.5ZM15.75 13.5C15.03 13.5 14.3633 13.32 13.75 12.96C13.1367 12.6 12.65 12.1133 12.29 11.5C11.93 10.8867 11.75 10.22 11.75 9.5C11.75 8.78 11.93 8.11333 12.29 7.5C12.65 6.88667 13.1367 6.4 13.75 6.04C14.3633 5.68 15.03 5.5 15.75 5.5C16.47 5.5 17.1367 5.68 17.75 6.04C18.3633 6.4 18.85 6.88667 19.21 7.5C19.57 8.11333 19.75 8.78 19.75 9.5C19.75 10.22 19.57 10.8867 19.21 11.5C18.85 12.1133 18.3633 12.6 17.75 12.96C17.1367 13.32 16.47 13.5 15.75 13.5ZM18.25 19.5V19C18.25 18.5467 18.1367 18.13 17.91 17.75C17.6833 17.37 17.38 17.0667 17 16.84C16.62 16.6133 16.2033 16.5 15.75 16.5C15.2967 16.5 14.88 16.6133 14.5 16.84C14.12 17.0667 13.8167 17.37 13.59 17.75C13.3633 18.13 13.25 18.5467 13.25 19V19.5H11.25V19C11.25 18.1867 11.4533 17.4367 11.86 16.75C12.2667 16.0633 12.8133 15.5167 13.5 15.11C14.1867 14.7033 14.9367 14.5 15.75 14.5C16.5633 14.5 17.3133 14.7033 18 15.11C18.6867 15.5167 19.2333 16.0633 19.64 16.75C20.0467 17.4367 20.25 18.1867 20.25 19V19.5H18.25ZM8.25 19.5V15.5C8.25 14.9533 8.11667 14.45 7.85 13.99C7.58333 13.53 7.22 13.1667 6.76 12.9C6.3 12.6333 5.79667 12.5 5.25 12.5C4.70333 12.5 4.2 12.6333 3.74 12.9C3.28 13.1667 2.91667 13.53 2.65 13.99C2.38333 14.45 2.25 14.9533 2.25 15.5V19.5H0.25V15.5C0.25 14.5933 0.473333 13.7567 0.92 12.99C1.36667 12.2233 1.97333 11.6167 2.74 11.17C3.50667 10.7233 4.34333 10.5 5.25 10.5C6.15667 10.5 6.99333 10.7233 7.76 11.17C8.52667 11.6167 9.13333 12.2233 9.58 12.99C10.0267 13.7567 10.25 14.5933 10.25 15.5V19.5H8.25Z" fill="#4B5563"/>
</svg>
