<svg width="26" height="24" viewBox="0 0 26 24" fill="none" xmlns="http://www.w3.org/2000/svg">
<path d="M17.57 16.06L17.75 16.24L17.93 16.06C18.21 15.7666 18.5433 15.57 18.93 15.47C19.3166 15.37 19.7033 15.37 20.09 15.47C20.4766 15.57 20.8166 15.7666 21.11 16.06C21.4033 16.3533 21.6 16.6933 21.7 17.08C21.8 17.4666 21.8 17.85 21.7 18.23C21.6 18.61 21.4033 18.9466 21.11 19.24L17.75 22.6L14.39 19.24C14.0966 18.9466 13.9 18.61 13.8 18.23C13.7 17.85 13.7 17.4666 13.8 17.08C13.9 16.6933 14.0966 16.3533 14.39 16.06C14.6833 15.7666 15.0233 15.57 15.41 15.47C15.7966 15.37 16.1833 15.37 16.57 15.47C16.9566 15.57 17.29 15.7666 17.57 16.06ZM11.73 14.4V16.4C10.65 16.4 9.64331 16.6733 8.70998 17.22C7.80331 17.7533 7.08331 18.4733 6.54998 19.38C6.00331 20.3133 5.72998 21.32 5.72998 22.4H3.72998C3.72998 20.9733 4.08331 19.6466 4.78998 18.42C5.46998 17.2333 6.39665 16.2866 7.56998 15.58C8.76998 14.8333 10.0766 14.44 11.49 14.4H11.73ZM11.73 1.39997C12.8233 1.39997 13.8366 1.67331 14.77 2.21997C15.6633 2.75331 16.3766 3.47331 16.91 4.37997C17.4566 5.29997 17.73 6.29997 17.73 7.37997C17.73 8.45997 17.47 9.45331 16.95 10.36C16.4433 11.2533 15.7466 11.9733 14.86 12.52C13.9733 13.0666 13.0033 13.36 11.95 13.4H11.73C10.65 13.4 9.64331 13.1266 8.70998 12.58C7.80331 12.0466 7.08331 11.3266 6.54998 10.42C6.00331 9.49997 5.72998 8.49997 5.72998 7.41997C5.72998 6.33998 5.98998 5.34664 6.50998 4.43997C7.01665 3.54664 7.71331 2.82664 8.59998 2.27997C9.48665 1.73331 10.4566 1.43997 11.51 1.39997H11.73ZM11.73 3.39997C11.01 3.39997 10.3433 3.57998 9.72998 3.93997C9.11665 4.29997 8.62998 4.78664 8.26998 5.39997C7.90998 6.01331 7.72998 6.67997 7.72998 7.39997C7.72998 8.11997 7.90998 8.78664 8.26998 9.39997C8.62998 10.0133 9.11665 10.5 9.72998 10.86C10.3433 11.22 11.01 11.4 11.73 11.4C12.45 11.4 13.1166 11.22 13.73 10.86C14.3433 10.5 14.83 10.0133 15.19 9.39997C15.55 8.78664 15.73 8.11997 15.73 7.39997C15.73 6.67997 15.55 6.01331 15.19 5.39997C14.83 4.78664 14.3433 4.29997 13.73 3.93997C13.1166 3.57998 12.45 3.39997 11.73 3.39997Z" fill="#4B5563"/>
</svg>
