<svg width="20" height="20" viewBox="0 0 20 20" fill="none" xmlns="http://www.w3.org/2000/svg">
<path d="M4.768 3.69998C5.48267 3.05554 6.28267 2.55554 7.168 2.19998C8.07467 1.84443 9.01867 1.66665 10 1.66665C11.088 1.66665 12.128 1.88331 13.12 2.31665C14.0693 2.73887 14.9147 3.33609 15.656 4.10831C16.3973 4.88054 16.9707 5.76109 17.376 6.74998C17.792 7.78331 18 8.86665 18 9.99998C18 10.8778 17.872 11.7278 17.616 12.55C17.3707 13.35 17.0133 14.0944 16.544 14.7833L14 9.99998H16.4C16.4 8.78887 16.1067 7.66665 15.52 6.63331C14.9547 5.63331 14.192 4.83887 13.232 4.24998C12.24 3.63887 11.1627 3.33331 10 3.33331C9.15733 3.33331 8.34667 3.49998 7.568 3.83331C6.82133 4.15554 6.15467 4.60554 5.568 5.18331L4.768 3.69998ZM15.232 16.3C14.5173 16.9444 13.7173 17.4444 12.832 17.8C11.9253 18.1555 10.9813 18.3333 10 18.3333C8.912 18.3333 7.872 18.1166 6.88 17.6833C5.93067 17.2611 5.08533 16.6639 4.344 15.8916C3.60267 15.1194 3.02933 14.2389 2.624 13.25C2.208 12.2166 2 11.1333 2 9.99998C2 9.1222 2.128 8.2722 2.384 7.44998C2.62933 6.64998 2.98667 5.90554 3.456 5.21665L6 9.99998H3.6C3.6 11.2111 3.89333 12.3333 4.48 13.3666C5.04533 14.3666 5.808 15.1611 6.768 15.75C7.76 16.3611 8.83733 16.6666 10 16.6666C10.8427 16.6666 11.6533 16.5 12.432 16.1666C13.1787 15.8444 13.8453 15.3944 14.432 14.8166L15.232 16.3Z" fill="#374151"/>
</svg>
