<svg width="26" height="24" viewBox="0 0 26 24" fill="none" xmlns="http://www.w3.org/2000/svg">
<path d="M13 22C11.64 22 10.34 21.74 9.1 21.22C7.91333 20.7133 6.85667 19.9967 5.93 19.07C5.00333 18.1433 4.28667 17.0867 3.78 15.9C3.26 14.66 3 13.36 3 12C3 10.64 3.26 9.34 3.78 8.1C4.28667 6.91333 5.00333 5.85667 5.93 4.93C6.85667 4.00333 7.91333 3.28667 9.1 2.78C10.34 2.26 11.64 2 13 2C14.36 2 15.66 2.26 16.9 2.78C18.0867 3.28667 19.1433 4.00333 20.07 4.93C20.9967 5.85667 21.7133 6.91333 22.22 8.1C22.74 9.34 23 10.64 23 12C23 13.36 22.74 14.66 22.22 15.9C21.7133 17.0867 20.9967 18.1433 20.07 19.07C19.1433 19.9967 18.0867 20.7133 16.9 21.22C15.66 21.74 14.36 22 13 22ZM13 20C14.4533 20 15.8 19.6333 17.04 18.9C18.24 18.1933 19.1933 17.24 19.9 16.04C20.6333 14.8 21 13.4533 21 12C21 10.5467 20.6333 9.2 19.9 7.96C19.1933 6.76 18.24 5.80667 17.04 5.1C15.8 4.36667 14.4533 4 13 4C11.5467 4 10.2 4.36667 8.96 5.1C7.76 5.80667 6.80667 6.76 6.1 7.96C5.36667 9.2 5 10.5467 5 12C5 13.4533 5.36667 14.8 6.1 16.04C6.80667 17.24 7.76 18.1933 8.96 18.9C10.2 19.6333 11.5467 20 13 20ZM11.62 8.42L16.5 11.66C16.5933 11.7267 16.65 11.8133 16.67 11.92C16.69 12.0267 16.6733 12.1267 16.62 12.22C16.58 12.26 16.54 12.3 16.5 12.34L11.62 15.58C11.5267 15.6467 11.4267 15.67 11.32 15.65C11.2133 15.63 11.1267 15.5733 11.06 15.48C11.02 15.4133 11 15.34 11 15.26V8.74C11 8.63333 11.04 8.54 11.12 8.46C11.2 8.38 11.2933 8.34 11.4 8.34C11.48 8.34 11.5533 8.36667 11.62 8.42Z" fill="white"/>
</svg>
