<svg width="20" height="33" viewBox="0 0 20 33" fill="none" xmlns="http://www.w3.org/2000/svg">
<path d="M10 0.5L19.1333 3.14727C19.3852 3.22485 19.5926 3.39939 19.7556 3.67091C19.9185 3.94242 20 4.24303 20 4.57273V19.0891C20 20.563 19.737 21.94 19.2111 23.22C18.6852 24.5 17.9556 25.5473 17.0222 26.3618L10 32.5L2.97778 26.3618C2.04444 25.5473 1.31481 24.5 0.788889 23.22C0.262963 21.94 0 20.563 0 19.0891V4.57273C0 4.24303 0.0814815 3.94242 0.244444 3.67091C0.407407 3.39939 0.614815 3.22485 0.866667 3.14727L10 0.5ZM10 3.46727L2.22222 5.73636V19.0891C2.22222 20.0782 2.3963 20.9994 2.74444 21.8527C3.09259 22.7061 3.57778 23.4042 4.2 23.9473L10 29.0091L15.8 23.9473C16.4222 23.4042 16.9074 22.7061 17.2556 21.8527C17.6037 20.9994 17.7778 20.0782 17.7778 19.0891V5.73636L10 3.46727ZM14.9556 11.0018L16.5111 13.0673L9.44444 22.3182L4.73333 16.1509L6.31111 14.0855L9.44444 18.2164L14.9556 11.0018Z" fill="#15803D"/>
</svg>
