<svg width="16" height="14" viewBox="0 0 16 14" fill="none" xmlns="http://www.w3.org/2000/svg">
<path d="M7.7502 12.8333C6.95715 12.8333 6.19908 12.6817 5.47601 12.3783C4.78403 12.0828 4.16786 11.6647 3.6275 11.1242C3.08714 10.5836 2.66923 9.96722 2.37378 9.27499C2.07056 8.55166 1.91895 7.79333 1.91895 6.99999C1.91895 6.20666 2.07056 5.44833 2.37378 4.72499C2.66923 4.03277 3.08714 3.41638 3.6275 2.87583C4.16786 2.33527 4.78403 1.91722 5.47601 1.62166C6.19908 1.31833 6.95715 1.16666 7.7502 1.16666C8.54325 1.16666 9.30131 1.31833 10.0244 1.62166C10.7164 1.91722 11.3325 2.33527 11.8729 2.87583C12.4133 3.41638 12.8312 4.03277 13.1266 4.72499C13.4298 5.44833 13.5814 6.20666 13.5814 6.99999C13.5814 7.79333 13.4298 8.55166 13.1266 9.27499C12.8312 9.96722 12.4133 10.5836 11.8729 11.1242C11.3325 11.6647 10.7164 12.0828 10.0244 12.3783C9.30131 12.6817 8.54325 12.8333 7.7502 12.8333ZM7.7502 11.6667C8.59767 11.6667 9.38295 11.4528 10.106 11.025C10.8058 10.6128 11.3617 10.0567 11.7738 9.35666C12.2014 8.63333 12.4152 7.84777 12.4152 6.99999C12.4152 6.15222 12.2014 5.36666 11.7738 4.64333C11.3617 3.94333 10.8058 3.38722 10.106 2.97499C9.38295 2.54722 8.59767 2.33333 7.7502 2.33333C6.90272 2.33333 6.11745 2.54722 5.39437 2.97499C4.69462 3.38722 4.13871 3.94333 3.72663 4.64333C3.29901 5.36666 3.0852 6.15222 3.0852 6.99999C3.0852 7.84777 3.29901 8.63333 3.72663 9.35666C4.13871 10.0567 4.69462 10.6128 5.39437 11.025C6.11745 11.4528 6.90272 11.6667 7.7502 11.6667ZM5.4177 7.58333H10.0827C10.0827 8.00333 9.97773 8.39222 9.76781 8.74999C9.55788 9.10777 9.2741 9.39166 8.91645 9.60166C8.5588 9.81166 8.17005 9.91666 7.7502 9.91666C7.33035 9.91666 6.9416 9.81166 6.58395 9.60166C6.2263 9.39166 5.94251 9.10777 5.73258 8.74999C5.52266 8.39222 5.4177 8.00333 5.4177 7.58333ZM5.4177 6.41666C5.17667 6.41666 4.97063 6.33111 4.79958 6.16C4.62853 5.98888 4.54301 5.78277 4.54301 5.54166C4.54301 5.30055 4.62853 5.09444 4.79958 4.92333C4.97063 4.75222 5.17667 4.66666 5.4177 4.66666C5.65872 4.66666 5.86476 4.75222 6.03581 4.92333C6.20686 5.09444 6.29238 5.30055 6.29238 5.54166C6.29238 5.78277 6.20686 5.98888 6.03581 6.16C5.86476 6.33111 5.65872 6.41666 5.4177 6.41666ZM10.0827 6.41666C9.84167 6.41666 9.63563 6.33111 9.46458 6.16C9.29353 5.98888 9.20801 5.78277 9.20801 5.54166C9.20801 5.30055 9.29353 5.09444 9.46458 4.92333C9.63563 4.75222 9.84167 4.66666 10.0827 4.66666C10.3237 4.66666 10.5298 4.75222 10.7008 4.92333C10.8719 5.09444 10.9574 5.30055 10.9574 5.54166C10.9574 5.78277 10.8719 5.98888 10.7008 6.16C10.5298 6.33111 10.3237 6.41666 10.0827 6.41666Z" fill="#FF8888"/>
</svg>
