<svg width="21" height="21" viewBox="0 0 21 21" fill="none" xmlns="http://www.w3.org/2000/svg">
<path d="M6.18001 8.83332L8.90001 6.51666V14.4833L6.18001 12.1667H3.30001V8.83332H6.18001ZM2.50001 13.8333H5.60401L9.84401 17.45C9.91868 17.5055 10.0067 17.5333 10.108 17.5333C10.2093 17.5333 10.3 17.4944 10.38 17.4167C10.46 17.3389 10.5 17.2389 10.5 17.1167V3.88332C10.5 3.78332 10.468 3.69166 10.404 3.60832C10.34 3.52499 10.252 3.47777 10.14 3.46666C10.028 3.45555 9.92935 3.48332 9.84401 3.54999L5.60401 7.16666H2.50001C2.27601 7.16666 2.08668 7.24721 1.93201 7.40832C1.77735 7.56944 1.70001 7.76666 1.70001 7.99999V13C1.70001 13.2333 1.77735 13.4305 1.93201 13.5917C2.08668 13.7528 2.27601 13.8333 2.50001 13.8333ZM19.3 10.5C19.3 11.8444 19.0333 13.1222 18.5 14.3333C17.9773 15.5111 17.2467 16.5278 16.308 17.3833L15.172 16.2C15.9613 15.5 16.5747 14.6667 17.012 13.7C17.4707 12.6889 17.7 11.6222 17.7 10.5C17.7 9.37777 17.4707 8.3111 17.012 7.29999C16.5747 6.33332 15.9613 5.49999 15.172 4.79999L16.308 3.61666C17.2467 4.47221 17.9773 5.48888 18.5 6.66666C19.0333 7.87777 19.3 9.15555 19.3 10.5ZM15.3 10.5C15.3 9.72221 15.1347 8.98333 14.804 8.28332C14.484 7.60555 14.0413 7.03332 13.476 6.56666L12.324 7.76666C12.7507 8.06666 13.0867 8.45832 13.332 8.94166C13.5773 9.42499 13.7 9.94444 13.7 10.5C13.7 11.0555 13.5773 11.575 13.332 12.0583C13.0867 12.5417 12.7507 12.9333 12.324 13.2333L13.476 14.4333C14.0413 13.9667 14.484 13.3944 14.804 12.7167C15.1347 12.0167 15.3 11.2778 15.3 10.5Z" fill="white"/>
</svg>
