<svg width="15" height="14" viewBox="0 0 15 14" fill="none" xmlns="http://www.w3.org/2000/svg">
<path d="M7.28901 12.8333C6.49596 12.8333 5.7379 12.6816 5.01483 12.3783C4.32285 12.0828 3.70668 11.6647 3.16632 11.1241C2.62596 10.5836 2.20805 9.9672 1.9126 9.27498C1.60938 8.55165 1.45776 7.79331 1.45776 6.99998C1.45776 6.20665 1.60938 5.44831 1.9126 4.72498C2.20805 4.03276 2.62596 3.41637 3.16632 2.87581C3.70668 2.33526 4.32285 1.9172 5.01483 1.62165C5.7379 1.31831 6.49596 1.16665 7.28901 1.16665C8.08206 1.16665 8.84013 1.31831 9.5632 1.62165C10.2552 1.9172 10.8713 2.33526 11.4117 2.87581C11.9521 3.41637 12.37 4.03276 12.6654 4.72498C12.9687 5.44831 13.1203 6.20665 13.1203 6.99998C13.1203 7.79331 12.9687 8.55165 12.6654 9.27498C12.37 9.9672 11.9521 10.5836 11.4117 11.1241C10.8713 11.6647 10.2552 12.0828 9.5632 12.3783C8.84013 12.6816 8.08206 12.8333 7.28901 12.8333ZM7.28901 11.6666C8.13649 11.6666 8.92176 11.4528 9.64484 11.025C10.3446 10.6128 10.9005 10.0566 11.3126 9.35665C11.7402 8.63331 11.954 7.84776 11.954 6.99998C11.954 6.1522 11.7402 5.36665 11.3126 4.64331C10.9005 3.94331 10.3446 3.3872 9.64484 2.97498C8.92176 2.5472 8.13649 2.33331 7.28901 2.33331C6.44154 2.33331 5.65626 2.5472 4.93319 2.97498C4.23344 3.3872 3.67753 3.94331 3.26545 4.64331C2.83783 5.36665 2.62401 6.1522 2.62401 6.99998C2.62401 7.84776 2.83783 8.63331 3.26545 9.35665C3.67753 10.0566 4.23344 10.6128 4.93319 11.025C5.65626 11.4528 6.44154 11.6666 7.28901 11.6666ZM7.87214 6.99998H10.2046V8.16665H6.70589V4.08331H7.87214V6.99998Z" fill="#6B7280"/>
</svg>
